<?xml version="1.0" encoding="UTF-8"?>
<svg id="Layer_2" data-name="Layer 2" xmlns="http://www.w3.org/2000/svg" viewBox="0 0 425.2 397.1">
  <defs>
    <style>
      .cls-1 {
        fill: #3a401d;
      }
    </style>
  </defs>
  <g id="Layer_1-2" data-name="Layer 1">
    <g>
      <path class="cls-1" d="m0,0v213.63h.17v183.47h424.88v-183.47h.15V0H0Zm211.39,17.34c51.96,0,94.08,42.12,94.08,94.08s-42.12,94.08-94.08,94.08-94.08-42.12-94.08-94.08S159.43,17.34,211.39,17.34Zm198.27,359.25l-92.46-80.91c-60.58-53.01-151.03-53.01-211.61,0L15.56,374.46v-147.41h394.1v149.54Z"/>
      <path class="cls-1" d="m157.72,108.72c2.97-.8,5.33-1.97,7.61-3.1,4.58-2.27,8.9-4.41,18.07-3.06,2.64.39,5.26,1.14,7.77,2.07-7.53.15-16.4,1.72-25.57,5.59-7.67,3.24-13.31,8.79-15.86,15.61-1.86,4.99-1.9,10.38-.09,14.07.96,1.96,4.04,5.25,8.23,5.72.3.03.63.05.97.05,2.19,0,5.06-.84,7.79-4.21,1.94-2.39,3.16-4.73,4.34-6.98,2.37-4.53,4.61-8.81,12.83-13.1,2.36-1.23,4.93-2.15,7.51-2.88-6.01,4.55-12.26,11.01-17.4,19.54-4.3,7.13-5.6,14.93-3.65,21.95,1.42,5.13,4.56,9.51,8.2,11.44,1.06.56,2.88,1.07,4.91,1.07,1.66,0,3.47-.34,5.11-1.28,1.98-1.12,4.38-3.51,4.65-8.51.16-3.07-.22-5.68-.6-8.2-.75-5.06-1.45-9.83,2.68-18.13,1.18-2.38,2.71-4.62,4.36-6.72-2.18,7.2-3.42,16.11-2.57,26.01.71,8.3,4.25,15.37,9.95,19.9,3.63,2.88,7.97,4.55,11.73,4.55.56,0,1.1-.04,1.63-.11,2.16-.31,6.24-2.22,7.98-6.06.94-2.07,1.49-5.41-1.24-9.61-1.68-2.58-3.52-4.46-5.3-6.28-3.57-3.65-6.95-7.1-8.49-16.25-.44-2.64-.54-5.38-.43-8.06,2.47,7.13,6.69,15.08,13.22,22.62,5.46,6.3,12.47,9.94,19.74,10.26.34.02.67.02,1,.02,4.95,0,9.64-1.6,12.41-4.28,1.57-1.52,3.74-5.47,2.9-9.59-.45-2.23-1.98-5.25-6.66-7.05-2.87-1.1-5.47-1.54-7.98-1.97-5.04-.85-9.8-1.66-16.42-8.15-1.9-1.87-3.57-4.02-5.06-6.25,6.18,4.31,14.26,8.26,23.96,10.51,2.53.59,5.03.88,7.45.88,5.36,0,10.37-1.42,14.55-4.19,4.44-2.94,7.64-7.28,8.35-11.33.38-2.15-.18-6.62-3.29-9.47-1.67-1.53-4.69-3.09-9.53-1.79-2.97.8-5.33,1.97-7.61,3.1-4.58,2.27-8.9,4.41-18.07,3.06-2.65-.39-5.28-1.15-7.81-2.08,7.54-.14,16.41-1.7,25.6-5.58,7.67-3.24,13.31-8.79,15.86-15.61,1.86-4.99,1.9-10.38.09-14.07-.96-1.96-4.04-5.25-8.23-5.72-2.26-.26-5.61.26-8.76,4.15-1.94,2.39-3.16,4.73-4.34,6.98-2.37,4.53-4.61,8.81-12.83,13.1-2.36,1.23-4.93,2.15-7.51,2.88,6.01-4.55,12.26-11.01,17.4-19.54,4.3-7.13,5.6-14.93,3.65-21.95-1.42-5.13-4.56-9.51-8.2-11.44-1.93-1.02-6.36-1.87-10.02.2-1.98,1.12-4.38,3.51-4.65,8.51-.16,3.07.22,5.68.6,8.2.75,5.06,1.45,9.83-2.68,18.13-1.18,2.38-2.71,4.62-4.36,6.72,2.18-7.2,3.42-16.11,2.57-26.01-.71-8.3-4.25-15.37-9.95-19.9-4.17-3.31-9.28-5.02-13.35-4.43-2.16.31-6.24,2.22-7.98,6.05-.94,2.07-1.49,5.41,1.24,9.61,1.68,2.58,3.52,4.46,5.3,6.28,3.57,3.65,6.95,7.1,8.49,16.25.45,2.64.54,5.38.43,8.07-2.47-7.13-6.69-15.08-13.22-22.62-5.46-6.3-12.47-9.94-19.75-10.26-5.31-.22-10.46,1.4-13.41,4.26-1.57,1.52-3.74,5.47-2.9,9.59.45,2.23,1.98,5.25,6.66,7.05,2.87,1.1,5.47,1.54,7.98,1.97,5.04.85,9.8,1.66,16.42,8.15,1.9,1.87,3.57,4.02,5.06,6.25-6.18-4.31-14.26-8.26-23.96-10.51-8.11-1.88-15.93-.71-22,3.31-4.44,2.94-7.64,7.28-8.34,11.33-.38,2.15.18,6.62,3.29,9.46,1.67,1.53,4.69,3.09,9.53,1.79Z"/>
    </g>
  </g>
</svg>